<?xml version="1.0" standalone="no"?>
<!DOCTYPE svg PUBLIC "-//W3C//DTD SVG 1.1//EN" "http://www.w3.org/Graphics/SVG/1.1/DTD/svg11.dtd" >
<svg xmlns="http://www.w3.org/2000/svg" xmlns:xlink="http://www.w3.org/1999/xlink" version="1.1">
<metadata></metadata>
<defs>
<font id="numbersredbird" horiz-adv-x="413" >
<font-face units-per-em="2048" ascent="1638" descent="-410" />
<missing-glyph horiz-adv-x="512" />
<glyph horiz-adv-x="0" />
<glyph horiz-adv-x="682" />
<glyph unicode=" "  horiz-adv-x="512" />
<glyph unicode="&#x09;" horiz-adv-x="512" />
<glyph unicode="&#xa0;" horiz-adv-x="512" />
<glyph unicode="&#x22;" horiz-adv-x="778" d="M92 948v4l55 498h193v-8l-92 -494h-156zM438 948v4l56 498h192v-8l-92 -494h-156z" />
<glyph unicode="#" horiz-adv-x="1681" d="M92 362l31 164h336l71 381h-337l30 164h338l68 363h164l-68 -363h367l67 363h164l-68 -363h334l-30 -164h-334l-70 -381h334l-31 -164h-334l-67 -362h-166l67 362h-364l-68 -362h-166l68 362h-336zM625 526h364l72 381h-367z" />
<glyph unicode="$" horiz-adv-x="964" d="M113 328v59h170v-41q0 -58 32 -91.5t95 -33.5h137q64 0 97.5 36t33.5 101v45q0 72 -25 109.5t-82 67.5l-309 153q-84 43 -116.5 110.5t-32.5 164.5v98q0 124 82 197t211 73h8v262h159v-262h7q123 0 197.5 -73.5t74.5 -196.5v-55h-170v36q0 58 -32 91.5t-95 33.5h-137 q-63 0 -97 -37.5t-34 -103.5v-45q0 -37 5.5 -61t22.5 -42t30.5 -26.5t47.5 -26.5l309 -153q84 -43 117 -111.5t33 -167.5v-110q0 -124 -82.5 -197.5t-210.5 -73.5v-262h-160v262h-14q-123 0 -197.5 74.5t-74.5 196.5z" />
<glyph unicode="%" horiz-adv-x="1775" d="M98 1040v111q0 125 85 212t210 87h64q125 0 210 -87t85 -212v-111q0 -125 -85 -212t-210 -87h-64q-125 0 -210 87t-85 212zM252 1061q0 -73 40.5 -121.5t113.5 -48.5h38q73 0 113.5 48.5t40.5 121.5v69q0 73 -40.5 121.5t-113.5 48.5h-38q-73 0 -113.5 -48.5 t-40.5 -121.5v-69zM393 0l813 1434h176l-813 -1434h-176zM1024 283v110q0 125 85 212t210 87h63q125 0 210 -87t85 -212v-110q0 -125 -85 -212t-210 -87h-63q-125 0 -210 87t-85 212zM1178 303q0 -73 40 -121.5t113 -48.5h39q73 0 113.5 48.5t40.5 121.5v70 q0 73 -40.5 121.5t-113.5 48.5h-39q-73 0 -113 -48.5t-40 -121.5v-70z" />
<glyph unicode="'" horiz-adv-x="432" d="M92 948v4l55 498h193v-8l-92 -494h-156z" />
<glyph unicode="(" horiz-adv-x="800" d="M143 717q0 171 42.5 340t144 342.5t252.5 298.5h209v-4q-132 -101 -227.5 -230t-145.5 -261.5t-72 -251.5t-22 -234t22 -234t72 -251.5t145.5 -261.5t227.5 -230v-4h-209q-151 125 -252.5 298.5t-144 342.5t-42.5 340z" />
<glyph unicode=")" horiz-adv-x="800" d="M10 -260q132 101 227.5 230t145.5 261.5t72 251.5t22 234t-22 234t-72 251.5t-145.5 261.5t-227.5 230v4h209q114 -95 200.5 -217t137 -251.5t75.5 -258t25 -254.5t-25 -254.5t-75.5 -258t-137 -251.5t-200.5 -217h-209v4z" />
<glyph unicode="*" horiz-adv-x="1083" d="M92 981v135h320l-219 334h167l181 -274l180 274h168l-221 -334h323v-135h-323l221 -334h-166l-182 277l-183 -277h-165l219 334h-320z" />
<glyph unicode="+" horiz-adv-x="983" d="M92 602v164h314v328h172v-328h313v-164h-313v-328h-172v328h-314z" />
<glyph unicode="," d="M39 -287q37 90 54.5 216t17.5 233v49h186v-41q0 -287 -82 -461h-174z" />
<glyph unicode="-" horiz-adv-x="798" d="M92 598v172h615v-172h-615z" />
<glyph unicode="." d="M90 0v244h234v-244h-234z" />
<glyph unicode="/" horiz-adv-x="1058" d="M31 -266l813 1966h184l-813 -1966h-184z" />
<glyph unicode="0" horiz-adv-x="983" d="M102 303v827q0 145 92.5 232.5t241.5 87.5h111q149 0 241.5 -87.5t92.5 -232.5v-827q0 -145 -92.5 -232t-241.5 -87h-111q-149 0 -241.5 87t-92.5 232zM287 305q0 -69 38.5 -108t108.5 -39h115q70 0 108.5 39t38.5 108v823q0 69 -38.5 108.5t-108.5 39.5h-115 q-70 0 -108.5 -39.5t-38.5 -108.5v-823z" />
<glyph unicode="1" horiz-adv-x="491" d="M154 0v1434h184v-1434h-184z" />
<glyph unicode="2" horiz-adv-x="976" d="M94 0v330q0 82 32 138t105 112l400 301q36 27 49.5 53.5t13.5 64.5v150q0 127 -127 127h-153q-127 0 -127 -127v-62h-181v74q0 134 83 211.5t221 77.5h165q142 0 223 -75.5t81 -213.5v-162q0 -82 -32 -137.5t-106 -111.5l-399 -301q-36 -27 -49.5 -54t-13.5 -65v-156h583 v-174h-768z" />
<glyph unicode="3" horiz-adv-x="935" d="M72 303v41h184v-39q0 -69 38.5 -108t108.5 -39h109q70 0 108.5 39t38.5 108v301q0 69 -38.5 108.5t-108.5 39.5h-205v102l273 404h-480v174h719v-105l-280 -411q141 -3 223 -81.5t82 -218.5v-315q0 -142 -94 -230.5t-240 -88.5h-104q-151 0 -242.5 86t-91.5 233z" />
<glyph unicode="4" horiz-adv-x="954" d="M82 276v222l348 940h184l-372 -996h290v367h177v-367h180v-166h-180v-276h-177v276h-450z" />
<glyph unicode="5" horiz-adv-x="962" d="M96 303v41h185v-39q0 -69 38.5 -108t108.5 -39h109q70 0 108.5 39t38.5 108v336q0 69 -38.5 108t-108.5 39h-424v646h721v-174h-545v-299h260q146 0 232.5 -81.5t86.5 -226.5v-350q0 -142 -93.5 -230.5t-239.5 -88.5h-105q-151 0 -242.5 86t-91.5 233z" />
<glyph unicode="6" horiz-adv-x="929" d="M86 303v279q0 158 34 295.5t123 282t234 274.5h291v-4q-194 -117 -318.5 -279.5t-166.5 -345.5q76 49 172 49h65q149 0 236.5 -85.5t87.5 -233.5v-232q0 -142 -94 -230.5t-240 -88.5h-96q-148 0 -238 86.5t-90 232.5zM270 303q0 -69 39 -109t109 -40h94q70 0 108.5 39.5 t38.5 109.5v232q0 70 -38.5 109.5t-108.5 39.5h-94q-70 0 -109 -40t-39 -109v-232z" />
<glyph unicode="7" horiz-adv-x="946" d="M74 1260v174h762v-174q0 -101 -10 -179.5t-37 -157t-52.5 -134t-77.5 -156.5q-102 -200 -140 -334.5t-40 -298.5h-182q0 161 44 318.5t157 373.5q93 178 124 286.5t31 246.5v35h-579z" />
<glyph unicode="8" horiz-adv-x="962" d="M96 303v236q0 163 123 241q-48 34 -73 83.5t-25 135.5v152q0 134 87.5 216.5t225.5 82.5h94q138 0 226 -82.5t88 -216.5v-152q0 -86 -25.5 -135t-73.5 -84q123 -78 123 -241v-236q0 -142 -94 -230.5t-240 -88.5h-102q-146 0 -240 88.5t-94 230.5zM281 303 q0 -70 38.5 -109.5t108.5 -39.5h107q70 0 108.5 39.5t38.5 109.5v240q0 70 -38.5 109.5t-108.5 39.5h-107q-70 0 -108.5 -39.5t-38.5 -109.5v-240zM305 995q0 -69 38 -107t108 -38h61q70 0 107.5 38t37.5 107v148q0 65 -35 101t-100 36h-82q-65 0 -100 -36t-35 -101v-148z " />
<glyph unicode="9" horiz-adv-x="929" d="M86 899v231q0 142 94 231t240 89h96q148 0 238 -87t90 -233v-278q0 -158 -34 -295.5t-123 -282t-234 -274.5h-291v4q194 117 318.5 279.5t166.5 345.5q-76 -49 -172 -49h-65q-149 0 -236.5 85.5t-87.5 233.5zM270 899q0 -69 39 -109t109 -40h94q70 0 108.5 39.5 t38.5 109.5v231q0 70 -38.5 110t-108.5 40h-94q-70 0 -109 -40t-39 -110v-231z" />
<glyph unicode=":" d="M90 0v244h234v-244h-234zM90 635v244h234v-244h-234z" />
<glyph unicode=";" d="M43 -287q37 90 54.5 216t17.5 233v49h186v-41q0 -287 -82 -461h-174zM90 635v244h234v-244h-234z" />
<glyph unicode="&#x3c;" horiz-adv-x="1054" d="M92 643v148l840 403v-188l-629 -289l629 -289v-188z" />
<glyph unicode="=" horiz-adv-x="942" d="M92 412v163h758v-163h-758zM92 793v163h758v-163h-758z" />
<glyph unicode="&#x3e;" horiz-adv-x="1126" d="M195 240v188l628 289l-628 289v188l839 -403v-148z" />
<glyph unicode="[" horiz-adv-x="800" d="M143 -266v1966h633v-158h-457v-1651h457v-157h-633z" />
<glyph unicode="]" horiz-adv-x="800" d="M25 -109h456v1651h-456v158h632v-1966h-632v157z" />
<glyph unicode="{" horiz-adv-x="1026" d="M92 627v180h98q189 0 189 209v364q0 150 74.5 235t218.5 85h334v-164h-299q-152 0 -152 -133v-348q0 -56 -1.5 -88t-7 -72.5t-17 -63t-32 -46.5t-52.5 -37t-76 -21v-20q30 -5 54.5 -13.5t43 -18.5t32.5 -26t23.5 -29.5t15.5 -38t9.5 -41.5t5 -48.5t2 -52.5t0.5 -60v-348 q0 -133 152 -133h299v-164h-334q-145 0 -219 84.5t-74 234.5v365q0 209 -189 209h-98z" />
<glyph unicode="|" horiz-adv-x="602" d="M213 -266v1966h176v-1966h-176z" />
<glyph unicode="}" horiz-adv-x="1026" d="M20 -102h299q152 0 152 133v348q0 39 0.5 60t2 52.5t5 48.5t9.5 41.5t15.5 38t23.5 29.5t32.5 26t43 18.5t54.5 13.5v20q-44 8 -76 21t-52.5 37t-32 46.5t-17 63t-7 72.5t-1.5 88v348q0 133 -152 133h-299v164h334q144 0 218.5 -85t74.5 -235v-364q0 -209 189 -209h98 v-180h-98q-189 0 -189 -209v-365q0 -150 -74 -234.5t-219 -84.5h-334v164z" />
<glyph unicode="&#xa2;" horiz-adv-x="909" d="M102 520v393q0 137 75 222.5t206 95.5v203h160v-203q132 -7 203 -89.5t71 -221.5v-17h-170v15q0 72 -33.5 111.5t-101.5 39.5h-88q-73 0 -110.5 -45.5t-37.5 -124.5v-364q0 -79 37.5 -124.5t110.5 -45.5h88q68 0 101.5 39.5t33.5 111.5v14h170v-16q0 -141 -71 -223.5 t-203 -89.5v-201h-160v201q-131 10 -206 96t-75 223z" />
<glyph unicode="&#xa3;" horiz-adv-x="1034" d="M90 608v160h146q-6 33 -22.5 92.5t-26 112t-9.5 110.5v23q0 159 83 251.5t239 92.5h123q137 0 221 -76.5t84 -212.5v-67h-174v59q0 129 -133 129h-99q-85 0 -122.5 -42t-37.5 -134v-31q0 -75 25.5 -174.5t30.5 -132.5h295v-160h-289q-1 -47 -8 -92.5t-14 -74t-20 -77.5 t-20 -77q-8 -36 -10.5 -64t-1.5 -39l2 -10h555v-174h-745q0 177 26 295q5 25 22.5 87t27.5 115.5t12 110.5h-160z" />
<glyph unicode="&#xa5;" horiz-adv-x="1056" d="M82 1434h188l258 -676l258 676h189l-242 -596h187v-148h-248l-60 -147v-33h308v-148h-308v-362h-168v362h-307v148h307v33l-61 147h-246v148h187z" />
<glyph unicode="&#xad;" horiz-adv-x="798" d="M92 598v172h615v-172h-615z" />
<glyph unicode="&#xb0;" horiz-adv-x="915" d="M92 1028v94q0 137 94.5 232.5t233.5 95.5h76q139 0 233 -95.5t94 -232.5v-94q0 -137 -94 -232.5t-233 -95.5h-76q-139 0 -233.5 95.5t-94.5 232.5zM258 1049q0 -84 45.5 -139.5t128.5 -55.5h53q81 0 126.5 55.5t45.5 139.5v53q0 83 -45.5 138.5t-126.5 55.5h-53 q-83 0 -128.5 -55t-45.5 -139v-53z" />
<glyph unicode="&#xb1;" horiz-adv-x="880" d="M92 197v163h696v-163h-696zM92 797v155h264v271h164v-271h268v-155h-268v-271h-164v271h-264z" />
<glyph unicode="&#xb7;" d="M90 563v244h234v-244h-234z" />
<glyph unicode="&#xd7;" horiz-adv-x="942" d="M92 424l260 260l-260 260l119 119l260 -260l260 260l119 -119l-260 -260l260 -260l-119 -119l-260 260l-260 -260z" />
<glyph unicode="&#xf7;" horiz-adv-x="1003" d="M92 600v168h819v-168h-819zM401 184v207h201v-207h-201zM401 956v207h201v-207h-201z" />
<glyph unicode="&#x2000;" horiz-adv-x="850" />
<glyph unicode="&#x2001;" horiz-adv-x="1700" />
<glyph unicode="&#x2002;" horiz-adv-x="850" />
<glyph unicode="&#x2003;" horiz-adv-x="1700" />
<glyph unicode="&#x2004;" horiz-adv-x="566" />
<glyph unicode="&#x2005;" horiz-adv-x="425" />
<glyph unicode="&#x2006;" horiz-adv-x="283" />
<glyph unicode="&#x2007;" horiz-adv-x="283" />
<glyph unicode="&#x2008;" horiz-adv-x="212" />
<glyph unicode="&#x2009;" horiz-adv-x="340" />
<glyph unicode="&#x200a;" horiz-adv-x="94" />
<glyph unicode="&#x2010;" horiz-adv-x="798" d="M92 598v172h615v-172h-615z" />
<glyph unicode="&#x2011;" horiz-adv-x="798" d="M92 598v172h615v-172h-615z" />
<glyph unicode="&#x2012;" horiz-adv-x="798" d="M92 598v172h615v-172h-615z" />
<glyph unicode="&#x2013;" horiz-adv-x="1085" d="M92 598v172h901v-172h-901z" />
<glyph unicode="&#x2014;" horiz-adv-x="2231" d="M92 598v172h2048v-172h-2048z" />
<glyph unicode="&#x2026;" horiz-adv-x="1015" d="M139 0v240h230v-240h-230zM647 0v240h230v-240h-230z" />
<glyph unicode="&#x202f;" horiz-adv-x="340" />
<glyph unicode="&#x205f;" horiz-adv-x="425" />
<glyph unicode="&#x20ac;" horiz-adv-x="1054" d="M74 475v148h127v180h-127v147h127v180q0 151 92.5 235.5t243.5 84.5h100q148 0 238 -87t90 -233v-30h-170v35q0 70 -36.5 110.5t-105.5 40.5h-123q-74 0 -115.5 -40t-41.5 -116v-180h358v-147h-358v-180h358v-148h-358v-172q0 -76 41.5 -116t115.5 -40h123 q69 0 105.5 40.5t36.5 111.5v35h170v-31q0 -146 -90 -232.5t-238 -86.5h-100q-152 0 -246 84.5t-90 234.5v172h-127z" />
<glyph unicode="&#x25fc;" horiz-adv-x="1024" d="M0 0z" />
</font>
</defs>
</svg>
